SplineFontDB: 3.0
FontName: aasheim
FullName: aasheim
FamilyName: aasheim
Weight: Regular
Copyright: Copyright (c) 2018, Jon Tore Hafstad
UComments: "2018-11-26: Created with FontForge (http://fontforge.org)"
Version: 001.000
ItalicAngle: 0
UnderlinePosition: -100
UnderlineWidth: 50
Ascent: 800
Descent: 200
InvalidEm: 0
LayerCount: 3
Layer: 0 0 "Back" 1
Layer: 1 0 "Fore" 0
Layer: 2 0 "Back 2" 1
HasVMetrics: 1
XUID: [1021 698 -643472631 6801391]
StyleMap: 0x0000
FSType: 0
OS2Version: 0
OS2_WeightWidthSlopeOnly: 0
OS2_UseTypoMetrics: 1
CreationTime: 1543223809
ModificationTime: 1543955880
PfmFamily: 17
TTFWeight: 400
TTFWidth: 5
LineGap: 90
VLineGap: 90
OS2TypoAscent: 0
OS2TypoAOffset: 1
OS2TypoDescent: 0
OS2TypoDOffset: 1
OS2TypoLinegap: 90
OS2WinAscent: 0
OS2WinAOffset: 1
OS2WinDescent: 0
OS2WinDOffset: 1
HheadAscent: 0
HheadAOffset: 1
HheadDescent: 0
HheadDOffset: 1
OS2Vendor: 'PfEd'
MarkAttachClasses: 1
DEI: 91125
LangName: 1033
Encoding: ISO8859-1
UnicodeInterp: none
NameList: AGL For New Fonts
DisplaySize: -36
AntiAlias: 1
FitToEm: 0
WidthSeparation: 150
WinInfo: 18 18 7
BeginPrivate: 0
EndPrivate
Grid
290.200195312 56.599609375 m 4
 375.799804688 56.599609375 475 72.599609375 475 119 c 4
 475 185.399414062 471.799804688 412.599609375 471.799804688 522.19921875 c 4
 471.799804688 581.399414062 375 613.399414062 291.799804688 613.399414062 c 4
 208.600585938 613.399414062 109.400390625 581.399414062 109.400390625 522.19921875 c 4
 109.400390625 412.599609375 111 185.399414062 111 119 c 4
 111 72.599609375 204.600585938 56.599609375 290.200195312 56.599609375 c 4
291.799804688 3.7998046875 m 5
 166.200195312 3.7998046875 49.400390625 35.7998046875 49.400390625 110.19921875 c 4
 49.400390625 170.19921875 47.7998046875 419.799804688 47.7998046875 531 c 4
 47.7998046875 651.799804688 181.400390625 663.799804688 291.799804688 663.799804688 c 5
 402.200195312 663.799804688 539.799804688 651.799804688 539.799804688 531 c 4

StartChar: e
Encoding: 101 101 0
Width: 604
VWidth: 0
Flags: W
HStem: 4 49.5996<162.293 465.741> 632.158 48.6416<244.431 467.738>
VStem: 43.8516 67.1992<97.0716 405.6> 483.109 74.5234<463.239 617.395> 500.971 59.9785<89.7147 209.596>
LayerCount: 3
Fore
SplineSet
43.05078125 424.599609375 m 4xe8
 43.05078125 538.200195312 82.9345703125 615.505859375 175.051757812 636.599609375 c 4
 216.1953125 646.021484375 317.288085938 663.799804688 368.651367188 663.799804688 c 4
 448.119140625 663.799804688 516.084960938 645.482421875 539.8515625 598.200195312 c 4
 564.651367188 548.861328125 557.6328125 532.110351562 557.6328125 454.200195312 c 4xf0
 557.6328125 443.811523438 557.818359375 404.881835938 557.818359375 393.400390625 c 5
 418.618164062 393.400390625 114.250976562 388.599609375 114.250976562 388.599609375 c 5
 114.250976562 327 111.05078125 235.200195312 111.05078125 157.599609375 c 0
 111.05078125 64.740234375 207.779296875 53.599609375 304.651367188 53.599609375 c 0
 345.482421875 53.599609375 405.4375 59.6376953125 447.05078125 66.400390625 c 0
 498.250976562 74.720703125 500.970703125 164.83203125 500.970703125 196.704101562 c 0
 500.970703125 204.671875 500.651367188 209.599609375 500.651367188 209.599609375 c 1
 499.8984375 209.412109375 498.92578125 209.3125 498.92578125 209.270507812 c 0
 498.92578125 209.251953125 499.096679688 209.244140625 499.524414062 209.244140625 c 0
 502.428710938 209.244140625 506.784179688 210.400390625 560.651367188 210.400390625 c 1
 560.651367188 190.0703125 560.94921875 170.338867188 560.94921875 152.612304688 c 0
 560.94921875 120.11328125 559.9453125 94.353515625 554.250976562 84 c 0
 534.250976562 48.7998046875 502.250976562 4 287.05078125 4 c 0
 191.05078125 4 43.8515625 39.2001953125 43.8515625 138.400390625 c 0
 43.8515625 284 43.05078125 424.599609375 43.05078125 424.599609375 c 4xe8
461.451171875 446.200195312 m 5
 461.451171875 447 483.109375 449.400390625 483.109375 450.200195312 c 4
 483.109375 559 503.8515625 615.158203125 394.250976562 615.158203125 c 4
 318.6640625 615.158203125 214.018554688 598.29296875 155.8515625 549.797851562 c 4
 124.750976562 523.869140625 112.651367188 480.275390625 112.651367188 444.599609375 c 5
 198.250976562 444.599609375 461.451171875 446.200195312 461.451171875 446.200195312 c 5
EndSplineSet
Validated: 524325
EndChar

StartChar: u
Encoding: 117 117 1
Width: 575
VWidth: 0
Flags: W
HStem: 0 36.7998<116.436 286.403>
VStem: 31.9004 74.4004<46.6846 626.967> 471.9 68.8008<6.40039 73.5647 120.045 633.395>
LayerCount: 3
Fore
SplineSet
107.099609375 646.200195312 m 1
 33.5 646.200195312 l 1
 33.5 646.200195312 31.900390625 312 31.900390625 81.599609375 c 0
 31.900390625 20 83.900390625 0 152.701171875 0 c 0
 283.900390625 0 472.701171875 73.599609375 472.701171875 73.599609375 c 0
 472.701171875 73.599609375 471.900390625 25.599609375 471.900390625 6.400390625 c 0
 471.900390625 2.400390625 471.900390625 0 471.900390625 0 c 1
 540.701171875 0 l 1
 540.701171875 272.799804688 543.099609375 495 543.099609375 652.599609375 c 1
 474.30078125 652.599609375 l 1
 474.30078125 652.599609375 471.900390625 352 471.900390625 176 c 0
 471.900390625 87.2001953125 331.900390625 36.7998046875 225.5 36.7998046875 c 0
 159.900390625 36.7998046875 106.30078125 31.2001953125 106.30078125 86.400390625 c 0
 106.30078125 302.400390625 107.099609375 646.200195312 107.099609375 646.200195312 c 1
EndSplineSet
Validated: 524329
EndChar

StartChar: n
Encoding: 110 110 2
Width: 607
VWidth: 0
Flags: W
HStem: 598.4 36.7998<304.597 474.565>
VStem: 50.2998 68.7998<1.80438 515.155 561.634 628.8> 485.5 70.3994<-0.799805 588.288>
LayerCount: 3
Fore
SplineSet
485.5 -0.7998046875 m 1
 555.899414062 -0.7998046875 l 1
 562.299804688 10.400390625 559.099609375 337.599609375 559.099609375 568.799804688 c 0
 559.099609375 630.400390625 507.099609375 655.200195312 438.299804688 655.200195312 c 0
 307.099609375 655.200195312 118.299804688 581.599609375 118.299804688 581.599609375 c 0
 118.299804688 581.599609375 119.099609375 629.599609375 119.099609375 648.799804688 c 0
 119.099609375 652.799804688 119.099609375 655.200195312 119.099609375 655.200195312 c 1
 50.2998046875 655.200195312 l 1
 50.2998046875 382.400390625 47.099609375 159.200195312 47.099609375 1.599609375 c 1
 116.700195312 1.599609375 l 1
 116.700195312 1.599609375 119.099609375 303.200195312 119.099609375 479.200195312 c 0
 119.099609375 568 259.099609375 618.400390625 365.5 618.400390625 c 0
 431.099609375 618.400390625 484.700195312 624 484.700195312 568.799804688 c 0
 484.700195312 352.799804688 485.5 -8.7998046875 485.5 -0.7998046875 c 1
EndSplineSet
Validated: 524325
EndChar

StartChar: o
Encoding: 111 111 3
Width: 572
VWidth: 0
Flags: W
HStem: -0.799805 52.7998<141.257 427.889> 608.8 50.4004<166.613 401.362>
VStem: 40 61.6006<82.6954 557.586> 467.2 63.2002<82.6954 557.586>
LayerCount: 3
Back
Refer: 2 110 N 1 0 0 1 599.292 0 2
Fore
SplineSet
282.400390625 52 m 4
 368 52 467.200195312 68 467.200195312 114.400390625 c 4
 467.200195312 180.799804688 464 408 464 517.599609375 c 4
 464 576.799804688 367.200195312 608.799804688 284 608.799804688 c 4
 200.80078125 608.799804688 101.600585938 576.799804688 101.600585938 517.599609375 c 4
 101.600585938 408 103.200195312 180.799804688 103.200195312 114.400390625 c 4
 103.200195312 68 196.80078125 52 282.400390625 52 c 4
284 -0.7998046875 m 5
 158.400390625 -0.7998046875 41.6005859375 31.2001953125 41.6005859375 105.599609375 c 4
 41.6005859375 165.599609375 40 415.200195312 40 526.400390625 c 4
 40 647.200195312 173.600585938 659.200195312 284 659.200195312 c 5
 394.400390625 659.200195312 532 647.200195312 532 526.400390625 c 4
 532 415.200195312 530.400390625 165.599609375 530.400390625 105.599609375 c 4
 530.400390625 31.2001953125 410.400390625 -0.7998046875 284 -0.7998046875 c 5
EndSplineSet
Validated: 524289
EndChar

StartChar: g
Encoding: 103 103 4
Width: 532
VWidth: 0
Flags: W
HStem: -508 27.2002<55.5557 246.415> 5.59961 51.2002<141.878 366.521> 610.4 57.5996<158.587 371.652>
VStem: 55.5557 75.2002<71.4439 108 535.2 581.823> 405.155 66.4004<-452.901 -377.6 89.0997 129.6 533.6 580.878 633.544 664>
LayerCount: 3
Back
SplineSet
536.35546875 -554 m 0
 495.724609375 -603.473632812 109.249023438 -600.571289062 109.249023438 -600.571289062 c 1
 109.249023438 -634.71875 l 17
 125.474609375 -635.268554688 142.876953125 -635.555664062 161.541015625 -635.555664062 c 0
 281.541015625 -635.555664062 616.35546875 -678 616.35546875 -554 c 1024
109.249023438 -634.71875 m 1025
EndSplineSet
Fore
SplineSet
306.755859375 -514.400390625 m 17
 402.755859375 -514.400390625 471.555664062 -508.799804688 471.555664062 -409.599609375 c 0
 471.555664062 -62.400390625 476.35546875 533.599609375 476.35546875 533.599609375 c 1
 476.35546875 533.599609375 477.155273438 615.200195312 477.155273438 664 c 1
 405.155273438 664 l 1
 405.155273438 656.799804688 405.155273438 632 405.155273438 633.599609375 c 1
 349.955078125 657.599609375 318.755859375 668 256.35546875 668 c 0
 140.35546875 668 55.5556640625 648.799804688 55.5556640625 535.200195312 c 2
 55.5556640625 103.200195312 l 2
 55.5556640625 7.2001953125 256.35546875 5.599609375 256.35546875 5.599609375 c 1
 357.955078125 5.599609375 405.155273438 28 405.155273438 28 c 1
 405.155273438 -377.599609375 l 1
 405.155273438 -440.799804688 405.155273438 -450.400390625 376.35546875 -456.799804688 c 0
 281.155273438 -476.799804688 55.5556640625 -480.799804688 55.5556640625 -480.799804688 c 1
 55.5556640625 -480.799804688 53.955078125 -497.599609375 55.5556640625 -508 c 1
 306.755859375 -514.400390625 l 17
405.155273438 533.599609375 m 0
 405.155273438 424 405.155273438 196 405.155273438 129.599609375 c 0
 405.155273438 83.2001953125 341.955078125 56.7998046875 256.35546875 56.7998046875 c 0
 159.555664062 56.7998046875 130.755859375 71.2001953125 130.755859375 108 c 0
 130.755859375 161.599609375 130.755859375 432 130.755859375 535.200195312 c 0
 130.755859375 576 158.755859375 610.400390625 256.35546875 610.400390625 c 0
 339.555664062 610.400390625 405.155273438 592.799804688 405.155273438 533.599609375 c 0
EndSplineSet
Validated: 524293
EndChar

StartChar: h
Encoding: 104 104 5
Width: 593
VWidth: 0
Flags: W
HStem: 597.6 36.8008<296.577 467.565>
VStem: 40.1006 72<1.00458 514.355> 478.5 70.4004<-1.59961 587.487>
LayerCount: 3
Fore
SplineSet
478.5 -1.599609375 m 1
 548.900390625 -1.599609375 l 1
 555.299804688 9.599609375 552.100585938 316.799804688 552.100585938 548 c 0
 552.100585938 609.599609375 500.100585938 634.400390625 431.299804688 634.400390625 c 0
 300.100585938 634.400390625 102.5 556.799804688 102.5 556.799804688 c 0
 102.5 556.799804688 102.5 1115.20019531 102.5 1134.40039062 c 0
 40.1005859375 1134.40039062 l 1
 40.1005859375 861.599609375 40.1005859375 158.400390625 40.1005859375 0.7998046875 c 1
 109.700195312 0.7998046875 l 1
 109.700195312 0.7998046875 112.100585938 282.400390625 112.100585938 458.400390625 c 0
 112.100585938 547.200195312 252.100585938 597.599609375 358.5 597.599609375 c 0
 424.100585938 597.599609375 477.700195312 603.200195312 477.700195312 548 c 0
 477.700195312 332 478.5 -9.599609375 478.5 -1.599609375 c 1
EndSplineSet
Validated: 524325
EndChar

StartChar: m
Encoding: 109 109 6
Width: 1050
VWidth: 0
Flags: W
HStem: 0 21G<482.6 555.884 931.4 1005> 599.2 36.7998<301.698 471.247 709.481 920.465>
VStem: 47.4004 68.7998<2.60516 515.955 562.435 636> 482.6 70.4004<0 533.834> 930.6 74.4004<0 589.087>
LayerCount: 3
Fore
SplineSet
532.201171875 602.400390625 m 1
 532.201171875 602.400390625 753 656 884.200195312 656 c 0
 953 656 1005 631.200195312 1005 569.599609375 c 0
 1005 338.400390625 1008.20019531 11.2001953125 1001.79980469 0 c 1
 931.400390625 0 l 1
 931.400390625 -8 930.599609375 353.599609375 930.599609375 569.599609375 c 0
 930.599609375 624.799804688 877 619.200195312 811.400390625 619.200195312 c 0
 705 619.200195312 559.400390625 607.200195312 556.282226562 499.200195312 c 0
 549.973632812 280.673828125 558.767578125 10.0927734375 553 0 c 1
 482.599609375 0 l 1
 482.599609375 -8 481.799804688 353.599609375 481.799804688 569.599609375 c 0
 481.799804688 624.799804688 428.200195312 619.200195312 362.599609375 619.200195312 c 0
 256.200195312 619.200195312 116.200195312 568.799804688 116.200195312 480 c 0
 116.200195312 304 113.799804688 2.400390625 113.799804688 2.400390625 c 1
 44.2001953125 2.400390625 l 1
 44.2001953125 160 47.400390625 383.200195312 47.400390625 656 c 1
 116.200195312 656 l 1
 116.200195312 656 116.200195312 653.599609375 116.200195312 649.599609375 c 0
 116.200195312 630.400390625 115.400390625 582.400390625 115.400390625 582.400390625 c 0
 115.400390625 582.400390625 304.200195312 656 435.400390625 656 c 0
 489.865234375 656 516.255859375 639.4375 532.201171875 602.400390625 c 1
EndSplineSet
Validated: 524321
EndChar

StartChar: d
Encoding: 100 100 7
Width: 623
VWidth: 0
Flags: W
HStem: 14.4004 48.7998<183.112 448.573> 616.8 57.6006<163.147 443.553>
VStem: 52.7002 69.5996<110.616 144 548 583.646> 487.1 83.2002<92.381 120.8 548 583.491>
LayerCount: 3
Fore
SplineSet
570.299804688 115.200195312 m 1
 570.299804688 178.400390625 570.299804688 377.599609375 570.299804688 546.400390625 c 0
 570.299804688 780.799804688 570.299804688 1148 570.299804688 1148 c 1
 486.299804688 1148 l 25
 486.299804688 652.799804688 l 1
 486.299804688 652.799804688 377.5 674.400390625 318.299804688 674.400390625 c 0
 207.899414062 674.400390625 52.7001953125 668.799804688 52.7001953125 548 c 0
 52.7001953125 436.799804688 54.2998046875 180.799804688 54.2998046875 120.799804688 c 0
 54.2998046875 46.400390625 175.899414062 14.400390625 301.5 14.400390625 c 0
 367.899414062 14.400390625 487.899414062 29.599609375 487.899414062 29.599609375 c 1
 487.899414062 12 l 1
 570.299804688 12 l 1
 570.299804688 115.200195312 l 1
487.099609375 120.799804688 m 1
 487.099609375 84 395.899414062 63.2001953125 299.099609375 63.2001953125 c 0
 213.5 63.2001953125 124.700195312 97.599609375 124.700195312 144 c 0
 124.700195312 210.400390625 122.299804688 438.400390625 122.299804688 548 c 0
 122.299804688 607.200195312 233.5 616.799804688 316.700195312 616.799804688 c 0
 414.299804688 616.799804688 487.099609375 588.799804688 487.099609375 548 c 0
 487.099609375 444.799804688 487.099609375 174.400390625 487.099609375 120.799804688 c 1
EndSplineSet
Validated: 524297
EndChar

StartChar: k
Encoding: 107 107 8
Width: 601
VWidth: 0
Flags: W
VStem: 45.0996 68.8008<6.23549 502>
LayerCount: 3
Fore
SplineSet
320.353515625 663.200195312 m 1
 113.900390625 490 l 1
 113.900390625 1138.79980469 l 1
 45.099609375 1138.79980469 l 1
 45.099609375 866 47.099609375 159.599609375 47.099609375 2 c 1
 117.5 2 l 1
 117.5 2 117.099609375 256.400390625 117.099609375 428.400390625 c 1
 240.299804688 249.200195312 491.099609375 -2.7998046875 485.5 2 c 1
 555.900390625 2 l 1
 551.099609375 14 177.900390625 458 177.900390625 458 c 1
 371.553710938 612 l 1
 320.353515625 663.200195312 l 1
EndSplineSet
Validated: 524325
EndChar

StartChar: i
Encoding: 105 105 9
Width: 202
VWidth: 0
Flags: W
HStem: 0 21G<58.0342 137.234> 656.8 88<63.4399 138.56>
VStem: 57 88<663.24 738.36> 58.0342 79.2002<0 552.8>
LayerCount: 3
Fore
SplineSet
57 805 m 0xe0
 57 829 77 849 101 849 c 0
 125 849 145 829 145 805 c 0
 145 781 125 761 101 761 c 0
 77 761 57 781 57 805 c 0xe0
137.234375 0 m 1xd0
 58.0341796875 0 l 1
 58.0341796875 657 l 1
 137.234375 657 l 1
 137.234375 0 l 1xd0
EndSplineSet
Validated: 524289
EndChar

StartChar: j
Encoding: 106 106 10
Width: 298
VWidth: 0
Flags: W
HStem: -519.645 27.9873<28.957 156.613> 664 88<187.483 262.603>
VStem: 181.043 88<670.44 745.56> 186.393 72.25<-470.079 -326.4>
LayerCount: 3
Fore
SplineSet
28.95703125 -518.974609375 m 17xd0
 41.9375 -519.415039062 55.859375 -519.64453125 70.791015625 -519.64453125 c 0
 166.791015625 -519.64453125 258.642578125 -507.200195312 258.642578125 -408 c 0
 258.642578125 -320 258.642578125 -62.400390625 258.642578125 138.400390625 c 0
 258.642578125 485.599609375 258.642578125 648 258.642578125 648 c 1
 258.642578125 648 258.642578125 615.19921875 258.642578125 664 c 1
 185.59375 664 l 1
 186.392578125 -326.400390625 l 2
 186.418825252 -358.94201483 187.275390625 -445.869140625 169.7578125 -467.200195312 c 0
 137.251953125 -506.779296875 28.95703125 -491.657226562 28.95703125 -491.657226562 c 1
 28.95703125 -518.974609375 l 17xd0
181.04296875 829.599609375 m 0xe0
 181.04296875 853.599609375 201.04296875 873.599609375 225.04296875 873.599609375 c 0
 249.04296875 873.599609375 269.04296875 853.599609375 269.04296875 829.599609375 c 0
 269.04296875 805.599609375 249.04296875 785.599609375 225.04296875 785.599609375 c 0
 201.04296875 785.599609375 181.04296875 805.599609375 181.04296875 829.599609375 c 0xe0
28.95703125 -518.974609375 m 1025
EndSplineSet
Validated: 524325
EndChar

StartChar: a
Encoding: 97 97 11
Width: 609
VWidth: 0
Flags: W
HStem: 0 49.5996<144.046 462.294> 544.8 44<182.61 440.21> 617.6 20G<490.1 558.9>
VStem: 50.0996 73.5996<71.3896 500.902> 490.9 68<0 28.7998 70.6194 507.48 577.6 637.6>
LayerCount: 3
Fore
SplineSet
490.900390625 644.599609375 m 1
 490.900390625 664.599609375 490.099609375 684.599609375 490.099609375 704.599609375 c 1
 558.900390625 704.599609375 l 1
 558.900390625 0 l 1
 558.900390625 0 509.30078125 0 489.30078125 0 c 9
 489.30078125 28.7998046875 l 1
 489.30078125 28.7998046875 396.5 0 294.900390625 0 c 1
 294.900390625 0 50.099609375 3.2001953125 50.099609375 99.2001953125 c 1
 50.099609375 535.799804688 l 1
 50.099609375 643.799804688 181.30078125 655.799804688 295.69921875 655.799804688 c 1
 359.69921875 655.799804688 490.900390625 644.599609375 490.900390625 644.599609375 c 1
124.5 535.799804688 m 1
 124.5 411.799804688 123.69921875 139.200195312 123.69921875 99.2001953125 c 0
 123.69921875 62.400390625 198.099609375 49.599609375 294.900390625 49.599609375 c 0
 380.5 49.599609375 491.69921875 52.7998046875 491.69921875 99.2001953125 c 0
 491.69921875 165.599609375 490.099609375 426.200195312 490.099609375 535.799804688 c 0
 490.099609375 595 378.900390625 611.799804688 295.69921875 611.799804688 c 0
 201.30078125 611.799804688 129.30078125 574.200195312 124.5 535.799804688 c 1
EndSplineSet
Validated: 524289
EndChar

StartChar: p
Encoding: 112 112 12
Width: 619
VWidth: 0
Flags: W
HStem: 0 57.5996<177.446 457.852> 611.2 48.7998<172.426 437.888> 644.8 21G<133.1 133.1>
VStem: 50.6992 83.2012<90.9087 126.4 553.6 582.019> 498.699 69.6016<90.7536 126.4 530.4 563.784>
LayerCount: 3
Fore
SplineSet
50.69921875 559.200195312 m 1xb8
 50.69921875 496 50.69921875 296.799804688 50.69921875 128 c 0
 50.69921875 -106.400390625 50.69921875 -473.599609375 50.69921875 -473.599609375 c 1
 134.69921875 -473.599609375 l 25
 134.69921875 21.599609375 l 1
 134.69921875 21.599609375 243.5 0 302.69921875 0 c 0
 413.099609375 0 568.30078125 5.599609375 568.30078125 126.400390625 c 0
 568.30078125 237.599609375 566.69921875 493.599609375 566.69921875 553.599609375 c 0
 566.69921875 628 445.099609375 660 319.5 660 c 0xd8
 253.099609375 660 133.099609375 644.799804688 133.099609375 644.799804688 c 1
 133.099609375 662.400390625 l 1
 50.69921875 662.400390625 l 1
 50.69921875 559.200195312 l 1xb8
133.900390625 553.599609375 m 1
 133.900390625 590.400390625 225.099609375 611.200195312 321.900390625 611.200195312 c 0
 407.5 611.200195312 496.30078125 576.799804688 496.30078125 530.400390625 c 0
 496.30078125 464 498.69921875 236 498.69921875 126.400390625 c 0
 498.69921875 67.2001953125 387.5 57.599609375 304.30078125 57.599609375 c 0
 206.69921875 57.599609375 133.900390625 85.599609375 133.900390625 126.400390625 c 0
 133.900390625 229.599609375 133.900390625 500 133.900390625 553.599609375 c 1
EndSplineSet
Validated: 524297
EndChar

StartChar: r
Encoding: 114 114 13
Width: 569
VWidth: 0
Flags: W
HStem: 604.8 38.4004<280.029 459.788>
VStem: 31.7002 68.7998<9.80438 512.873 569.634 636.8>
LayerCount: 3
Fore
SplineSet
540.5 556.799804688 m 1
 540.5 618.400390625 488.5 643.200195312 419.700195312 643.200195312 c 0
 288.5 643.200195312 99.7001953125 569.599609375 99.7001953125 569.599609375 c 0
 99.7001953125 569.599609375 100.5 617.599609375 100.5 636.799804688 c 0
 100.5 640.799804688 100.5 643.200195312 100.5 643.200195312 c 1
 31.7001953125 643.200195312 l 1
 31.7001953125 370.400390625 28.5 167.200195312 28.5 9.599609375 c 1
 98.099609375 9.599609375 l 1
 98.099609375 9.599609375 100.5 291.200195312 100.5 467.200195312 c 0
 100.5 556 305.299804688 604.799804688 411.700195312 604.799804688 c 0
 477.299804688 604.799804688 466.099609375 556.799804688 466.099609375 556.799804688 c 1
 466.099609375 556.799804688 511.700195312 556.799804688 540.5 556.799804688 c 1
EndSplineSet
Validated: 524329
EndChar

StartChar: b
Encoding: 98 98 14
Width: 635
VWidth: 0
Flags: W
HStem: 2.40039 48.7998<180.426 445.888> 604.8 57.6006<185.446 465.852>
VStem: 58.6992 83.2012<0 17.5996 80.381 571.491 640.8 1136> 506.699 69.6016<98.6158 571.646>
LayerCount: 3
Fore
SplineSet
58.69921875 103.200195312 m 1
 58.69921875 166.400390625 58.69921875 365.599609375 58.69921875 534.400390625 c 0
 58.69921875 768.799804688 58.69921875 1136 58.69921875 1136 c 1
 142.69921875 1136 l 25
 142.69921875 640.799804688 l 1
 142.69921875 640.799804688 251.5 662.400390625 310.69921875 662.400390625 c 0
 421.099609375 662.400390625 576.30078125 656.799804688 576.30078125 536 c 0
 576.30078125 424.799804688 574.69921875 168.799804688 574.69921875 108.799804688 c 0
 574.69921875 34.400390625 453.099609375 2.400390625 327.5 2.400390625 c 0
 261.099609375 2.400390625 141.099609375 17.599609375 141.099609375 17.599609375 c 1
 141.099609375 0 l 1
 58.69921875 0 l 1
 58.69921875 103.200195312 l 1
141.900390625 108.799804688 m 1
 141.900390625 72 233.099609375 51.2001953125 329.900390625 51.2001953125 c 0
 415.5 51.2001953125 504.30078125 85.599609375 504.30078125 132 c 0
 504.30078125 198.400390625 506.69921875 426.400390625 506.69921875 536 c 0
 506.69921875 595.200195312 395.5 604.799804688 312.30078125 604.799804688 c 0
 214.69921875 604.799804688 141.900390625 576.799804688 141.900390625 536 c 0
 141.900390625 432.799804688 141.900390625 162.400390625 141.900390625 108.799804688 c 1
EndSplineSet
Validated: 524289
EndChar

StartChar: q
Encoding: 113 113 15
Width: 616
VWidth: 0
Flags: W
HStem: -12 57.5996<159.648 440.054> 599.2 48.7998<179.612 445.074>
VStem: 49.2002 69.5996<78.7536 551.784> 482.8 84<-485.6 9.59961 78.9087 570.019 632.8 650.4>
LayerCount: 3
Fore
SplineSet
566.799804688 555.200195312 m 5
 566.799804688 492 566.799804688 284.799804688 566.799804688 116 c 0
 566.799804688 -118.400390625 566.799804688 -485.599609375 566.799804688 -485.599609375 c 1
 482.799804688 -485.599609375 l 25
 482.799804688 9.599609375 l 1
 482.799804688 9.599609375 374 -12 314.799804688 -12 c 0
 204.400390625 -12 49.2001953125 -6.400390625 49.2001953125 114.400390625 c 0
 49.2001953125 225.599609375 50.7998046875 489.599609375 50.7998046875 549.599609375 c 4
 50.7998046875 624 172.400390625 656 298 656 c 4
 364.400390625 656 484.400390625 640.799804688 484.400390625 640.799804688 c 5
 484.400390625 658.400390625 l 5
 566.799804688 658.400390625 l 5
 566.799804688 555.200195312 l 5
483.600585938 549.599609375 m 5
 483.600585938 586.400390625 392.400390625 607.200195312 295.600585938 607.200195312 c 4
 210 607.200195312 121.200195312 572.799804688 121.200195312 526.400390625 c 4
 121.200195312 460 118.799804688 224 118.799804688 114.400390625 c 0
 118.799804688 55.2001953125 230 45.599609375 313.200195312 45.599609375 c 0
 410.799804688 45.599609375 483.600585938 73.599609375 483.600585938 114.400390625 c 0
 483.600585938 217.599609375 483.600585938 496 483.600585938 549.599609375 c 5
EndSplineSet
Validated: 524289
EndChar

StartChar: c
Encoding: 99 99 16
Width: 577
VWidth: 0
Flags: W
HStem: 0 49.5996<150.684 399.171> 603.2 57.5996<154.951 435.632>
VStem: 30.8789 79.2012<81.4869 107.2 534.4 568.173> 475.68 70.4414<108.918 147.726 534.4 569.273>
LayerCount: 3
Fore
SplineSet
546.080078125 534.400390625 m 1
 546.080078125 533.599609375 l 0
 546.080078125 654.400390625 390.87890625 660.799804688 280.48046875 660.799804688 c 0
 164.48046875 660.799804688 30.87890625 648 30.87890625 534.400390625 c 0
 30.87890625 429.599609375 30.87890625 165.599609375 30.87890625 102.400390625 c 0
 30.87890625 6.400390625 184.15625 -0.8544921875 315.353515625 0 c 0
 468.13671875 0.9951171875 546.12109375 71.396484375 546.12109375 147.200195312 c 3
 546.12109375 148.525390625 499.732421875 146.955078125 475.6796875 148 c 1
 475.6796875 101.599609375 385.279296875 49.599609375 299.6796875 49.599609375 c 0
 202.87890625 49.599609375 110.080078125 70.400390625 110.080078125 107.200195312 c 0
 110.080078125 160.799804688 110.87890625 431.200195312 110.87890625 534.400390625 c 0
 110.87890625 575.200195312 184.48046875 603.200195312 282.080078125 603.200195312 c 0
 365.279296875 603.200195312 476.48046875 593.599609375 476.48046875 534.400390625 c 0
 531.353515625 534.400390625 487.353515625 534.400390625 546.080078125 534.400390625 c 1
EndSplineSet
Validated: 524325
EndChar

StartChar: l
Encoding: 108 108 17
Width: 236
VWidth: 0
Flags: W
HStem: -0.799805 21G<84.273 158.801> 1109.6 20G<77.1992 157.228>
VStem: 77.1992 80<30.779 1129.6> 84.4004 74.4004<0 1098.02>
LayerCount: 3
Fore
SplineSet
158.80078125 0 m 1xd0
 84.400390625 -0.7998046875 l 1xd0
 77.19921875 1129.59960938 l 1
 157.19921875 1129.59960938 l 1xe0
 158.80078125 0 l 1xd0
EndSplineSet
Validated: 524289
EndChar

StartChar: f
Encoding: 102 102 18
Width: 369
VWidth: 0
Flags: W
HStem: 728 54.4004<25.3955 107.604 190.996 267.604> 1166.4 31.5244<209.138 342.372>
VStem: 108.787 78.4004<4.7998 728 783.2 1143.72>
LayerCount: 3
Back
SplineSet
458.671875 35 m 1
 458.671875 0 l 1
 307.879882812 -8.865234375 171.72265625 19.24609375 169.671875 130 c 0
 165.671875 346 166.40234375 697.806640625 166.40234375 910 c 1
 53.59375 910 l 1
 53.595703125 977 l 1
 163.595703125 977 l 1
 163.595703125 1134 l 1
 254.595703125 1134 l 1
 254.595703125 977 l 1
 356.595703125 977 l 1
 356.59375 910 l 1
 254.59375 910 l 1
 249.671875 108 l 0
 262.197265625 26.1357421875 425.016601562 21.8798828125 458.671875 35 c 1
278.595703125 1427.28125 m 0
 319.2265625 1476.75488281 454.595703125 1457.85253906 454.595703125 1457.85253906 c 1
 454.595703125 1492 l 17
 438.370117188 1492.54980469 420.967773438 1492.83691406 402.303710938 1492.83691406 c 0
 282.303710938 1492.83691406 167.489257812 1477.28125 167.489257812 1353.28125 c 1024
454.595703125 1492 m 1025
EndSplineSet
Fore
SplineSet
107.795898438 783.200195312 m 1
 107.795898438 860.770507812 108.83984375 1033.12988281 111.795898438 1098.40039062 c 0
 113.875 1144.32519531 164.328125 1190.86230469 249.075195312 1197.92480469 c 0
 287.475585938 1201.125 343.795898438 1196 343.795898438 1196 c 0
 343.795898438 1196 340.7109375 1164.28320312 343.795898438 1168.79980469 c 0
 343.795898438 1168.79980469 341.6328125 1167.00585938 272.595703125 1166.40039062 c 0
 181.395507812 1165.59960938 188.595703125 1124 188.595703125 1043.20019531 c 0
 188.595703125 932.799804688 191.604492188 802.400390625 190.99609375 782.400390625 c 1
 267.795898438 782.400390625 l 1
 267.604492188 728 l 1
 186.00390625 728 l 1
 187.1875 4.7998046875 l 1
 108.787109375 4.7998046875 l 1
 107.604492188 728 l 1
 25.2041015625 728 l 1
 25.3955078125 782.400390625 l 1
 107.795898438 783.200195312 l 1
EndSplineSet
Validated: 524325
EndChar

StartChar: t
Encoding: 116 116 19
Width: 433
VWidth: 0
Flags: W
HStem: 0 28<252.798 378.531> 728 53.5996<54.4697 142.47 215.271 296.868>
VStem: 142.47 72.8008<54.9627 728 781.6 907.2>
LayerCount: 3
Fore
SplineSet
378.53125 28 m 1
 378.53125 0 l 1
 257.897460938 -7.091796875 148.971679688 15.396484375 147.331054688 104 c 0
 144.130859375 276.799804688 144.715820312 558.24609375 144.715820312 728 c 1
 54.46875 728 l 1
 54.4697265625 781.599609375 l 1
 142.469726562 781.599609375 l 1
 142.469726562 907.200195312 l 1
 215.270507812 907.200195312 l 1
 215.270507812 781.599609375 l 1
 296.870117188 781.599609375 l 1
 296.868164062 728 l 1
 215.268554688 728 l 1
 211.331054688 86.400390625 l 0
 221.3515625 20.908203125 351.606445312 17.50390625 378.53125 28 c 1
EndSplineSet
Validated: 524321
EndChar

StartChar: s
Encoding: 115 115 20
Width: 563
VWidth: 0
Flags: W
HStem: 12 67.2002<150.827 432.988>
VStem: 454.028 70.3994<128.031 269.224>
LayerCount: 3
Fore
SplineSet
524.427734375 191.200195312 m 0
 524.427734375 154.400390625 524.427734375 146.400390625 524.427734375 128 c 0
 524.427734375 38.400390625 431.627929688 12 294.028320312 12 c 0
 222.028320312 12 175.627929688 15.2001953125 0.427734375 93.599609375 c 1
 12.427734375 117.599609375 l 1
 26.0283203125 151.200195312 l 1
 181.228515625 82.400390625 217.228515625 79.2001953125 294.028320312 79.2001953125 c 0
 390.828125 79.2001953125 439.627929688 84.7998046875 451.627929688 128 c 0
 451.627929688 128 454.028320312 171.200195312 454.028320312 183.200195312 c 0
 454.028320312 324 333.470703125 361.423828125 170.028320312 424.799804688 c 0
 130.828125 440 92.3515625 442.400390625 92.3515625 477.599609375 c 0
 92.3515625 509.599609375 88.3515625 579.200195312 129.151367188 602.400390625 c 0
 248.3515625 670.400390625 347.627929688 692 506.028320312 576.799804688 c 1
 506.028320312 576.799804688 475.627929688 532 469.228515625 543.200195312 c 1
 148.427734375 744 140.427734375 507.200195312 190.828125 487.200195312 c 0
 451.627929688 385.599609375 524.427734375 351.200195312 524.427734375 191.200195312 c 0
EndSplineSet
Validated: 524321
EndChar

StartChar: x
Encoding: 120 120 21
Width: 533
VWidth: 0
Flags: W
HStem: 624.8 20G<105.7 192.149 353.125 440.101>
LayerCount: 3
Back
SplineSet
50.900390625 0 m 25
 146.900390625 0 l 25
 544.900390625 804 l 25
 448.900390625 804 l 25
 50.900390625 0 l 25
EndSplineSet
Fore
SplineSet
116.900390625 2.400390625 m 1
 42.5 2.400390625 l 1
 75.30078125 67.2001953125 170.5 242.400390625 230.5 384 c 1
 105.700195312 649.799804688 l 5
 182.5 649.799804688 l 5
 270.5 462.400390625 l 1
 363.30078125 649.799804688 l 5
 440.100585938 649.799804688 l 5
 376.900390625 531.400390625 378.5 521.599609375 312.100585938 387.200195312 c 1
 490.5 2.400390625 l 1
 419.30078125 2.400390625 l 1
 272.100585938 318.400390625 l 1
 272.100585938 318.400390625 116.900390625 4.7998046875 116.900390625 2.400390625 c 1
EndSplineSet
Validated: 524289
EndChar

StartChar: v
Encoding: 118 118 22
Width: 635
VWidth: 0
Flags: W
HStem: 0 21G<295.09 393.9> 604 20G<41.0996 123.215 512.46 593.9>
LayerCount: 3
Fore
SplineSet
303.5 0 m 1
 41.099609375 647 l 1
 114.69921875 647 l 1
 114.69921875 647 229.900390625 332 325.900390625 128 c 1
 421.900390625 332 520.298828125 647 520.298828125 647 c 1
 593.900390625 647 l 1
 593.900390625 647 437.900390625 218.400390625 349.900390625 0 c 1
 303.5 0 303.5 0 303.5 0 c 1
EndSplineSet
Validated: 524289
EndChar

StartChar: w
Encoding: 119 119 23
Width: 922
VWidth: 0
Flags: W
HStem: 0 21G<306.989 377.7 557.775 669> 604 20G<53 135.116 787.561 869>
LayerCount: 3
Fore
SplineSet
433.50390625 354.002929688 m 9
 500.39453125 354.7421875 l 1
 500.39453125 354.7421875 567.911132812 198.313476562 601 128 c 1
 697 332 795.399414062 648 795.399414062 648 c 1
 869 648 l 1
 869 648 713 218.400390625 625 0 c 1
 578.599609375 0 578.599609375 0 578.599609375 0 c 1
 536.951171875 94.1103515625 512.34765625 168.290039062 465.799804688 262.400390625 c 1
 426.809570312 162.559570312 393.600585938 78.9228515625 361.799804688 0 c 1
 315.399414062 0 315.399414062 0 315.399414062 0 c 1
 53 648 l 1
 126.599609375 648 l 1
 126.599609375 648 241.799804688 332 337.799804688 128 c 1
 370.780273438 198.083984375 404.043945312 278.5546875 433.50390625 354.002929688 c 9
EndSplineSet
Validated: 524289
EndChar

StartChar: z
Encoding: 122 122 24
Width: 646
VWidth: 0
Flags: W
HStem: 0 64<194.6 597.8> 564 48.7998<101.8 456.2>
LayerCount: 3
Fore
SplineSet
101.799804688 609 m 1
 101.799804688 657.799804688 l 1
 565.799804688 657.799804688 l 2
 194.599609375 64 l 1
 565.799804688 64 l 1
 597.799804688 64 l 1
 597.799804688 32 l 1
 597.799804688 0 l 1
 565.799804688 0 l 2
 48.2001953125 0 l 1
 456.200195312 609 l 1
 101.799804688 609 l 1
EndSplineSet
Validated: 524289
EndChar

StartChar: y
Encoding: 121 121 25
Width: 624
VWidth: 0
Flags: W
HStem: 613.6 20G<35.5996 117.715 506.962 588.4>
LayerCount: 3
Back
SplineSet
555.599609375 785 m 4
 555.599609375 815 580.599609375 840 610.599609375 840 c 4
 640.599609375 840 665.599609375 815 665.599609375 785 c 4
 665.599609375 755 640.599609375 730 610.599609375 730 c 4
 580.599609375 730 555.599609375 755 555.599609375 785 c 4
562.2890625 678 m 5
 653.599609375 678 l 5
 653.599609375 617 653.599609375 658 653.599609375 658 c 5
 653.599609375 658 653.599609375 607 653.599609375 173 c 4
 653.599609375 -78 653.599609375 -400 653.599609375 -510 c 4
 653.599609375 -634 538.78515625 -649.555664062 418.78515625 -649.555664062 c 4
 146.78515625 -649.555664062 142.78515625 -588.555664062 142.78515625 -541.555664062 c 4
 142.78515625 -468.4296875 l 4
 142.78515625 -469.555664062 l 5
 210.119140625 -469.555664062 233.0078125 -470 239.599609375 -470 c 4
 241.322265625 -470 241.931640625 -469.969726562 241.931640625 -469.893554688 c 4
 241.931640625 -469.823242188 241.421875 -469.71484375 240.78515625 -469.555664062 c 5
 240.78515625 -469.555664062 233.599609375 -494.407226562 233.599609375 -514 c 4
 233.599609375 -620.818359375 463.240234375 -658.719726562 547.599609375 -556 c 4
 569.498046875 -529.336914062 563.326171875 -448.677734375 563.2890625 -408 c 6xd0
 562.2890625 678 l 5
EndSplineSet
Fore
SplineSet
123.599609375 -504 m 1
 106 -504 86.80078125 -497.599609375 68.400390625 -492 c 1
 306 93.599609375 298 69.599609375 291.599609375 69.599609375 c 1
 35.599609375 651.599609375 l 1
 109.19921875 651.599609375 l 1
 109.19921875 651.599609375 224.400390625 341.599609375 320.400390625 137.599609375 c 1
 416.400390625 341.599609375 514.80078125 651.599609375 514.80078125 651.599609375 c 1
 588.400390625 651.599609375 l 1
 588.400390625 651.599609375 378 93.599609375 123.599609375 -504 c 1
EndSplineSet
Validated: 524321
EndChar

StartChar: hyphen
Encoding: 45 45 26
Width: 333
VWidth: 0
Flags: W
HStem: 216 56<69 228>
VStem: 68 160
LayerCount: 3
Fore
SplineSet
68 272 m 5
 228 272 l 5
 228 216 l 5
 69 216 l 5
 68 272 l 5
EndSplineSet
Validated: 1
EndChar

StartChar: T
Encoding: 84 84 27
Width: 433
VWidth: 0
Flags: W
HStem: 0 28<252.798 378.531> 728 53.5996<54.4697 142.47 215.271 296.868>
VStem: 142.47 72.8008<54.9627 728 781.6 907.2>
LayerCount: 3
Fore
SplineSet
378.53125 28 m 1
 378.53125 0 l 1
 257.897460938 -7.091796875 148.971679688 15.396484375 147.331054688 104 c 0
 144.130859375 276.799804688 144.715820312 558.24609375 144.715820312 728 c 1
 54.46875 728 l 1
 54.4697265625 781.599609375 l 1
 142.469726562 781.599609375 l 1
 142.469726562 907.200195312 l 1
 215.270507812 907.200195312 l 1
 215.270507812 781.599609375 l 1
 296.870117188 781.599609375 l 1
 296.868164062 728 l 1
 215.268554688 728 l 1
 211.331054688 86.400390625 l 0
 221.3515625 20.908203125 351.606445312 17.50390625 378.53125 28 c 1
EndSplineSet
Validated: 33
EndChar

StartChar: zero
Encoding: 48 48 28
Width: 557
VWidth: 0
Flags: W
HStem: 0 52.7998<139.232 416.333> 771.2 50.3994<166.451 382.079>
VStem: 45.375 61.5996<82.722 723.886> 446.182 63.1992<80.4021 720.805>
LayerCount: 3
Fore
SplineSet
275.775390625 52.7998046875 m 0
 361.375 52.7998046875 446.181640625 65.599609375 446.181640625 112 c 0
 446.181640625 178.400390625 443.625 567.200195312 443.625 676.799804688 c 0
 443.625 736 361.21875 771.200195312 278.01953125 771.200195312 c 0
 194.8203125 771.200195312 106.974609375 738.400390625 106.974609375 679.200195312 c 0
 106.974609375 569.599609375 107.9296875 180.799804688 107.9296875 114.400390625 c 0
 107.9296875 68 190.17578125 52.7998046875 275.775390625 52.7998046875 c 0
277.375 0 m 1
 151.775390625 0 46.330078125 31.2001953125 46.330078125 105.599609375 c 0
 46.330078125 165.599609375 45.375 576.799804688 45.375 688 c 0
 45.375 808.799804688 167.619140625 821.599609375 278.01953125 821.599609375 c 1
 388.419921875 821.599609375 511.625 806.400390625 511.625 685.599609375 c 0
 511.625 574.400390625 509.380859375 163.200195312 509.380859375 103.200195312 c 0
 509.380859375 28.7998046875 403.775390625 0 277.375 0 c 1
EndSplineSet
Validated: 1
EndChar

StartChar: one
Encoding: 49 49 29
Width: 557
VWidth: 0
Flags: WO
VStem: 242.5 72<3.2002 812.8>
LayerCount: 3
Fore
SplineSet
242.5 812.799804688 m 1
 314.5 812.799804688 l 1
 314.5 3.2001953125 l 1
 242.5 3.2001953125 l 1
 242.5 812.799804688 l 1
EndSplineSet
Validated: 524289
EndChar

StartChar: two
Encoding: 50 50 30
Width: 557
VWidth: 0
Flags: W
HStem: 0 57.5996<155.7 504.5>
LayerCount: 3
Fore
SplineSet
110.100585938 732 m 1
 95.7001953125 760.799804688 l 1
 124.5 774.400390625 l 1
 406.900390625 914.400390625 578.100585938 712.799804688 398.100585938 441.599609375 c 0
 398.100585938 441.599609375 148.5 38.400390625 155.700195312 52.7998046875 c 1
 472.5 57.599609375 l 1
 504.5 57.599609375 l 1
 504.5 34.400390625 l 1
 504.5 0 l 1
 472.5 0 l 1
 107.700195312 0 52.5 0 52.5 0 c 1
 261.299804688 348 l 1
 261.299804688 348 426.901367188 605.599609375 415.700195312 671.200195312 c 0
 413.866210938 681.943359375 409.299804688 741.599609375 326.100585938 754.400390625 c 0
 274.700195312 762.307617188 202.198242188 741.666992188 153.299804688 717.599609375 c 1
 152.5 717.599609375 152.5 716.799804688 153.299804688 717.599609375 c 1
 124.5 703.200195312 l 1
 110.100585938 732 l 1
EndSplineSet
Validated: 524325
EndChar

StartChar: three
Encoding: 51 51 31
Width: 557
VWidth: 0
Flags: W
HStem: 750.174 62.626<61.7461 409.188>
LayerCount: 3
Fore
SplineSet
269.987304688 513.599609375 m 1
 409.1875 749.693359375 l 1
 84.466796875 750.173828125 l 1
 61.74609375 750.173828125 l 1
 61.69921875 788.720703125 l 1
 61.69921875 812.799804688 l 1
 84.4189453125 812.799804688 l 1
 362.739257812 813.919921875 514.787109375 811.200195312 514.787109375 811.200195312 c 1
 333.987304688 508.799804688 l 1
 633.1875 249.599609375 470.787109375 -74.2451171875 71.0126953125 15.3740234375 c 1
 42.212890625 28.974609375 l 1
 59.0126953125 91.3740234375 l 1
 87.8125 76.974609375 l 1
 87.0126953125 77.7744140625 87.0126953125 76.974609375 87.8125 76.974609375 c 1
 136.7109375 52.9072265625 218.1953125 48.24609375 269.987304688 52.955078125 c 0
 437.1875 68.154296875 485.228515625 307.200195312 269.987304688 513.599609375 c 1
EndSplineSet
Validated: 524325
EndChar

StartChar: four
Encoding: 52 52 32
Width: 557
VWidth: 0
Flags: W
HStem: 204 56.7998<184.9 422.5>
VStem: 426.5 58.4004<9.60059 204 260.8 647.805>
LayerCount: 3
Fore
SplineSet
422.5 204 m 1
 152.01953125 202.896484375 72.099609375 199.200195312 72.099609375 199.200195312 c 1
 482.5 868.799804688 l 1
 484.900390625 9.6005859375 l 1
 426.5 9.6005859375 l 1
 422.5 204 l 1
422.5 260.799804688 m 1
 422.5 380 426.5 648 426.5 648 c 1
 426.5 648 426.5 654.400390625 184.900390625 260.799804688 c 1
 422.5 260.799804688 l 1
EndSplineSet
Validated: 524321
EndChar

StartChar: five
Encoding: 53 53 33
Width: 557
VWidth: 0
Flags: W
HStem: 4.7998 49.3574<126.237 408.187> 428.8 57.6006<156.005 362.677> 754.975 62.625<160.525 487.726>
VStem: 93.3252 62.6797<486.4 759.068> 430.126 68<76.56 383.273>
LayerCount: 3
Back
SplineSet
320.725585938 662 m 5
 321.725585938 948.834960938 l 5
 785.600585938 943.717773438 l 5
 806.725585938 943.717773438 l 5
 806.725585938 991.900390625 l 5
 806.725585938 1022 l 5
 785.66015625 1022 l 5
 437.759765625 1023.40039062 237.725585938 1022.71777344 237.725585938 1022.71777344 c 5
 235.725585938 614 l 5
 235.725585938 614 l 5
 229.374023438 614.62109375 555.52734375 509.83203125 621.725585938 447 c 4
 680.725585938 391 790.318359375 275.239257812 603.725585938 139 c 4
 551.224609375 100.666992188 341.014648438 101.916015625 279.892578125 132 c 5
 278.892578125 132 278.892578125 133 279.892578125 132 c 5
 243.892578125 150 l 5
 221.892578125 102 l 5
 201.725585938 59 l 5
 237.892578125 43.4521484375 l 5
 236.892578125 43.4521484375 236.892578125 43.4521484375 237.892578125 43.4521484375 c 5
 654.725585938 -119 1020.31640625 272.01953125 668.725585938 516.452148438 c 4
 559.736328125 592.223632812 484.408203125 588.397460938 320.725585938 662 c 5
EndSplineSet
Fore
SplineSet
58.92578125 51.365234375 m 0
 57.2080078125 52.953125 99.2119140625 99.19921875 99.2119140625 99.19921875 c 1
 99.2119140625 99.19921875 127.725585938 54.1572265625 213.325195312 54.1572265625 c 0
 298.92578125 54.1572265625 433.791015625 58.400390625 433.791015625 104.799804688 c 0
 433.791015625 171.200195312 430.125976562 228.799804688 430.125976562 338.400390625 c 0
 430.125976562 397.599609375 366.413085938 420 213.325195312 428.799804688 c 0
 93.3251953125 428.799804688 l 9
 93.3251953125 486.400390625 l 1
 93.3251953125 818.173828125 l 1
 93.3251953125 818.173828125 192.552734375 818.720703125 470.873046875 817.599609375 c 1
 487.725585938 817.599609375 l 1
 487.725585938 793.520507812 l 1
 487.725585938 754.974609375 l 1
 470.825195312 754.974609375 l 1
 160.525390625 759.068359375 l 1
 156.004882812 486.400390625 l 1
 156.004882812 486.400390625 204.525390625 486.400390625 264.525390625 486.400390625 c 1
 374.92578125 486.400390625 498.125976562 468 498.125976562 347.200195312 c 0
 498.125976562 236 496.991210938 156 496.991210938 96 c 0
 496.991210938 21.599609375 339.725585938 4.7998046875 213.325195312 4.7998046875 c 1
 115.186523438 15.025390625 88.525390625 24 58.92578125 51.365234375 c 0
EndSplineSet
Validated: 524321
EndChar

StartChar: six
Encoding: 54 54 34
Width: 557
VWidth: 0
Flags: W
HStem: 0 52.7998<139.747 416.917> 432.8 50.4004<160.419 381.358> 771.2 50.3994<168.66 392.895>
VStem: 46.0996 61.6006<81.9983 392.057 456.8 687.598 688 723.886> 446.9 63.1992<80.4021 112 338.4 378.465>
LayerCount: 3
Fore
SplineSet
510.099609375 103.200195312 m 0
 510.099609375 163.200195312 510.900390625 236 510.900390625 347.200195312 c 0
 510.900390625 468 387.700195312 483.200195312 277.299804688 483.200195312 c 1
 217.299804688 483.200195312 153.299804688 480 107.700195312 456.799804688 c 1
 107.700195312 679.200195312 l 1
 107.700195312 738.400390625 194.099609375 771.200195312 277.299804688 771.200195312 c 0
 361.299804688 771.200195312 414.099609375 756 442.099609375 693.599609375 c 1
 503.700195312 735.200195312 l 1
 503.700195312 785.599609375 387.700195312 821.599609375 277.299804688 821.599609375 c 1
 166.900390625 821.599609375 46.099609375 808.799804688 46.099609375 688 c 1
 46.099609375 688 46.900390625 132.799804688 46.900390625 108 c 0
 46.900390625 33.599609375 151.700195312 0 277.299804688 0 c 1
 403.700195312 0 510.099609375 28.7998046875 510.099609375 103.200195312 c 0
277.299804688 52.7998046875 m 0
 191.700195312 52.7998046875 108.5 68 108.5 114.400390625 c 0
 108.5 180.799804688 106.099609375 236 106.099609375 345.599609375 c 0
 106.099609375 404.799804688 194.099609375 432.799804688 277.299804688 432.799804688 c 0
 360.5 432.799804688 442.900390625 397.599609375 442.900390625 338.400390625 c 0
 442.900390625 228.799804688 446.900390625 178.400390625 446.900390625 112 c 0
 446.900390625 65.599609375 362.900390625 52.7998046875 277.299804688 52.7998046875 c 0
EndSplineSet
Validated: 524297
EndChar

StartChar: seven
Encoding: 55 55 35
Width: 557
VWidth: 0
Flags: W
HStem: 0 21G<75.9458 162.188> 752.8 65.6006<-7.90039 456.9>
LayerCount: 3
Fore
SplineSet
152.099609375 0 m 1
 72.900390625 20.7998046875 l 1
 456.900390625 752.799804688 l 1
 24.099609375 752.799804688 l 1
 -7.900390625 752.799804688 l 1
 -7.900390625 784 l 1
 -7.900390625 818.400390625 l 1
 24.099609375 818.400390625 l 1
 416.099609375 818.400390625 564.900390625 818.400390625 564.900390625 818.400390625 c 1
 152.099609375 0 l 1
EndSplineSet
Validated: 524289
EndChar

StartChar: eight
Encoding: 56 56 36
Width: 557
VWidth: 0
Flags: W
HStem: -32 56<137.129 423.191> 497 44<187.228 380.628> 497 24<177.128 388.728> 779 50<187.319 377.075>
VStem: 45.375 61.5527<50.7664 82 405 449.087> 80.9277 61<540.148 577 689 737.897> 411.928 71<536.847 577 689 746.852> 447.928 63.3613<48.4021 80 402 446.034>
LayerCount: 3
Fore
SplineSet
283.927734375 521 m 4xb6
 198.328125 521 141.927734375 531 141.927734375 577 c 4
 141.927734375 643 141.927734375 577 145.927734375 689 c 4
 148.927734375 748 198.927734375 779 281.927734375 779 c 4
 364.927734375 779 414.328125 748.200195312 414.328125 689 c 4
 414.328125 579.400390625 411.927734375 643.400390625 411.927734375 577 c 4
 411.927734375 530.600585938 369.52734375 521 283.927734375 521 c 4xb6
281.927734375 497 m 5xd6
 407.927734375 497 482.927734375 503 482.927734375 577 c 4
 482.927734375 637 481.927734375 578 481.927734375 689 c 4
 481.927734375 810 391.927734375 829 281.927734375 829 c 5
 171.927734375 829 89.927734375 808 84.927734375 689 c 4
 79.927734375 578 80.927734375 637 80.927734375 577 c 4
 80.927734375 503 155.927734375 497 281.927734375 497 c 5xd6
279.927734375 24 m 0
 193.927734375 24 109.927734375 36 109.927734375 82 c 0
 109.927734375 149 106.927734375 295 106.927734375 405 c 4
 106.927734375 464 198.927734375 497 281.927734375 497 c 4
 364.927734375 497 443.927734375 461 443.927734375 402 c 4
 443.927734375 293 447.927734375 146 447.927734375 80 c 0xd9
 447.927734375 34 365.927734375 24 279.927734375 24 c 0
279.927734375 -32 m 1
 406.328125 -32 511.2890625 -3.2001953125 511.2890625 71.2001953125 c 0
 511.2890625 131.200195312 511.625 299.799804688 511.625 411 c 4
 511.625 531.799804688 396.328125 541 285.927734375 541 c 5
 175.52734375 541 45.375 534.200195312 45.375 413.400390625 c 4
 45.375 302.200195312 48.23828125 133.599609375 48.23828125 73.599609375 c 0
 48.23828125 -0.7998046875 154.328125 -32 279.927734375 -32 c 1
EndSplineSet
Validated: 524325
EndChar

StartChar: nine
Encoding: 57 57 37
Width: 557
VWidth: 0
Flags: W
HStem: -6.27539 50.3994<164.104 388.34> 332.124 50.4004<175.642 396.581> 762.524 52.7998<140.083 417.252>
VStem: 46.0996 68<432.158 476.924 703.324 737.919> 449.299 61.6016<91.4382 127.324 127.727 358.524 423.267 733.326>
LayerCount: 3
Fore
SplineSet
46.900390625 712.124023438 m 0
 46.900390625 652.124023438 46.099609375 579.32421875 46.099609375 468.124023438 c 0
 46.099609375 347.32421875 169.298828125 332.124023438 279.69921875 332.124023438 c 1
 339.69921875 332.124023438 403.69921875 335.32421875 449.298828125 358.524414062 c 1
 449.298828125 136.124023438 l 1
 449.298828125 76.923828125 362.900390625 44.1240234375 279.69921875 44.1240234375 c 0
 195.69921875 44.1240234375 142.900390625 59.32421875 114.900390625 121.724609375 c 1
 53.298828125 80.1240234375 l 1
 53.298828125 29.724609375 169.298828125 -6.275390625 279.69921875 -6.275390625 c 1
 390.099609375 -6.275390625 510.900390625 6.5244140625 510.900390625 127.32421875 c 1
 510.900390625 127.32421875 510.099609375 682.524414062 510.099609375 707.32421875 c 0
 510.099609375 781.724609375 405.298828125 815.32421875 279.69921875 815.32421875 c 1
 153.298828125 815.32421875 46.900390625 786.524414062 46.900390625 712.124023438 c 0
279.69921875 762.524414062 m 0
 365.298828125 762.524414062 448.5 747.32421875 448.5 700.923828125 c 0
 448.5 634.524414062 450.900390625 579.32421875 450.900390625 469.724609375 c 0
 450.900390625 410.524414062 362.900390625 382.524414062 279.69921875 382.524414062 c 0
 196.5 382.524414062 114.099609375 417.724609375 114.099609375 476.923828125 c 0
 114.099609375 586.524414062 110.099609375 636.923828125 110.099609375 703.32421875 c 0
 110.099609375 749.724609375 194.099609375 762.524414062 279.69921875 762.524414062 c 0
EndSplineSet
Validated: 524297
EndChar

StartChar: comma
Encoding: 44 44 38
Width: 195
VWidth: 0
Flags: W
HStem: -69 137
VStem: 61 77<12 68>
LayerCount: 3
Fore
SplineSet
61 68 m 1
 138 68 l 1
 138 12 l 1
 61 -69 l 1
 61 68 l 1
EndSplineSet
Validated: 1
EndChar

StartChar: period
Encoding: 46 46 39
Width: 204
VWidth: 0
Flags: W
HStem: 0 66.8018<57 135>
VStem: 57 78<0 66.8018>
LayerCount: 3
Fore
SplineSet
57 66.8017578125 m 1
 135 68 l 1
 135 0 l 1
 57 0 l 1
 57 66.8017578125 l 1
EndSplineSet
Validated: 1
EndChar

StartChar: colon
Encoding: 58 58 40
Width: 138
VWidth: 0
Flags: W
HStem: 128 53.4414<43.2002 105.6> 384 53.4414<43.2002 105.6>
VStem: 43.2002 62.3994<128 181.441 384 437.441>
LayerCount: 3
Fore
SplineSet
43.2001953125 181.44140625 m 1
 105.599609375 182.400390625 l 1
 105.599609375 128 l 1
 43.2001953125 128 l 1
 43.2001953125 181.44140625 l 1
43.2001953125 437.44140625 m 1
 105.599609375 438.400390625 l 1
 105.599609375 384 l 1
 43.2001953125 384 l 1
 43.2001953125 437.44140625 l 1
EndSplineSet
Validated: 1
EndChar

StartChar: semicolon
Encoding: 59 59 41
Width: 122
VWidth: 0
Flags: W
HStem: 384 53.4414<33.5996 95.999>
VStem: 33.5996 62.3994<141.6 186.4 384 437.441>
LayerCount: 3
Fore
SplineSet
33.599609375 186.400390625 m 1
 95.9990234375 186.400390625 l 1
 95.9990234375 141.599609375 l 1
 33.599609375 76.7998046875 l 1
 33.599609375 186.400390625 l 1
33.599609375 437.44140625 m 1
 95.9990234375 438.400390625 l 1
 95.9990234375 384 l 1
 33.599609375 384 l 1
 33.599609375 437.44140625 l 1
EndSplineSet
Validated: 1
EndChar

StartChar: plus
Encoding: 43 43 42
Width: 333
VWidth: 0
Flags: W
HStem: 216 56<69 266>
VStem: 140 56<147 344>
LayerCount: 3
Fore
SplineSet
68 272 m 1
 266 272 l 1
 266 216 l 1
 69 216 l 1
 68 272 l 1
140 146 m 1
 140 344 l 1
 196 344 l 1
 196 147 l 1
 140 146 l 1
EndSplineSet
Validated: 5
EndChar

StartChar: A
Encoding: 65 65 43
Width: 609
VWidth: 0
Flags: W
HStem: 0 49.5996<294.9 462.294> 611.8 44<182.61 440.21>
VStem: 50.0996 73.5996<71.3896 567.902> 490.9 68<0 28.7998 70.6194 574.48 644.6 704.6>
LayerCount: 3
Fore
SplineSet
490.900390625 644.599609375 m 1
 490.900390625 664.599609375 490.099609375 684.599609375 490.099609375 704.599609375 c 1
 558.900390625 704.599609375 l 1
 558.900390625 0 l 1
 558.900390625 0 509.30078125 0 489.30078125 0 c 9
 489.30078125 28.7998046875 l 1
 489.30078125 28.7998046875 396.5 0 294.900390625 0 c 1
 294.900390625 0 50.099609375 3.2001953125 50.099609375 99.2001953125 c 1
 50.099609375 535.799804688 l 1
 50.099609375 643.799804688 181.30078125 655.799804688 295.69921875 655.799804688 c 1
 359.69921875 655.799804688 490.900390625 644.599609375 490.900390625 644.599609375 c 1
124.5 535.799804688 m 1
 124.5 411.799804688 123.69921875 139.200195312 123.69921875 99.2001953125 c 0
 123.69921875 62.400390625 198.099609375 49.599609375 294.900390625 49.599609375 c 0
 380.5 49.599609375 491.69921875 52.7998046875 491.69921875 99.2001953125 c 0
 491.69921875 165.599609375 490.099609375 426.200195312 490.099609375 535.799804688 c 0
 490.099609375 595 378.900390625 611.799804688 295.69921875 611.799804688 c 0
 201.30078125 611.799804688 129.30078125 574.200195312 124.5 535.799804688 c 1
EndSplineSet
Validated: 524289
EndChar

StartChar: B
Encoding: 66 66 44
Width: 635
VWidth: 0
Flags: W
HStem: 2.40039 48.7998<180.426 445.888> 604.8 57.6006<185.446 465.852>
VStem: 58.6992 83.2012<0 17.5996 80.381 571.491 640.8 1136> 506.699 69.6016<98.6158 571.646>
LayerCount: 3
Fore
SplineSet
58.69921875 103.200195312 m 1
 58.69921875 166.400390625 58.69921875 365.599609375 58.69921875 534.400390625 c 0
 58.69921875 768.799804688 58.69921875 1136 58.69921875 1136 c 1
 142.69921875 1136 l 25
 142.69921875 640.799804688 l 1
 142.69921875 640.799804688 251.5 662.400390625 310.69921875 662.400390625 c 0
 421.099609375 662.400390625 576.30078125 656.799804688 576.30078125 536 c 0
 576.30078125 424.799804688 574.69921875 168.799804688 574.69921875 108.799804688 c 0
 574.69921875 34.400390625 453.099609375 2.400390625 327.5 2.400390625 c 0
 261.099609375 2.400390625 141.099609375 17.599609375 141.099609375 17.599609375 c 1
 141.099609375 0 l 1
 58.69921875 0 l 1
 58.69921875 103.200195312 l 1
141.900390625 108.799804688 m 1
 141.900390625 72 233.099609375 51.2001953125 329.900390625 51.2001953125 c 0
 415.5 51.2001953125 504.30078125 85.599609375 504.30078125 132 c 0
 504.30078125 198.400390625 506.69921875 426.400390625 506.69921875 536 c 0
 506.69921875 595.200195312 395.5 604.799804688 312.30078125 604.799804688 c 0
 214.69921875 604.799804688 141.900390625 576.799804688 141.900390625 536 c 0
 141.900390625 432.799804688 141.900390625 162.400390625 141.900390625 108.799804688 c 1
EndSplineSet
Validated: 1
EndChar

StartChar: C
Encoding: 67 67 45
Width: 577
VWidth: 0
Flags: W
HStem: 0 49.5996<150.684 399.171> 603.2 57.5996<154.951 435.632>
VStem: 30.8789 79.2012<81.4869 107.2 534.4 568.173> 475.68 70.4414<108.918 147.726 534.4 569.273>
LayerCount: 3
Fore
SplineSet
546.080078125 534.400390625 m 1
 546.080078125 533.599609375 l 0
 546.080078125 654.400390625 390.87890625 660.799804688 280.48046875 660.799804688 c 0
 164.48046875 660.799804688 30.87890625 648 30.87890625 534.400390625 c 0
 30.87890625 429.599609375 30.87890625 165.599609375 30.87890625 102.400390625 c 0
 30.87890625 6.400390625 184.15625 -0.8544921875 315.353515625 0 c 0
 468.13671875 0.9951171875 546.12109375 71.396484375 546.12109375 147.200195312 c 3
 546.12109375 148.525390625 499.732421875 146.955078125 475.6796875 148 c 1
 475.6796875 101.599609375 385.279296875 49.599609375 299.6796875 49.599609375 c 0
 202.87890625 49.599609375 110.080078125 70.400390625 110.080078125 107.200195312 c 0
 110.080078125 160.799804688 110.87890625 431.200195312 110.87890625 534.400390625 c 0
 110.87890625 575.200195312 184.48046875 603.200195312 282.080078125 603.200195312 c 0
 365.279296875 603.200195312 476.48046875 593.599609375 476.48046875 534.400390625 c 0
 531.353515625 534.400390625 487.353515625 534.400390625 546.080078125 534.400390625 c 1
EndSplineSet
Validated: 37
EndChar

StartChar: D
Encoding: 68 68 46
Width: 623
VWidth: 0
Flags: W
HStem: 14.4004 48.7998<183.112 448.573> 616.8 57.6006<163.147 443.553>
VStem: 52.7002 69.5996<110.616 144 548 583.646> 487.1 83.2002<92.381 120.8 548 583.491>
LayerCount: 3
Fore
SplineSet
570.299804688 115.200195312 m 1
 570.299804688 178.400390625 570.299804688 377.599609375 570.299804688 546.400390625 c 0
 570.299804688 780.799804688 570.299804688 1148 570.299804688 1148 c 1
 486.299804688 1148 l 25
 486.299804688 652.799804688 l 1
 486.299804688 652.799804688 377.5 674.400390625 318.299804688 674.400390625 c 0
 207.899414062 674.400390625 52.7001953125 668.799804688 52.7001953125 548 c 0
 52.7001953125 436.799804688 54.2998046875 180.799804688 54.2998046875 120.799804688 c 0
 54.2998046875 46.400390625 175.899414062 14.400390625 301.5 14.400390625 c 0
 367.899414062 14.400390625 487.899414062 29.599609375 487.899414062 29.599609375 c 1
 487.899414062 12 l 1
 570.299804688 12 l 1
 570.299804688 115.200195312 l 1
487.099609375 120.799804688 m 1
 487.099609375 84 395.899414062 63.2001953125 299.099609375 63.2001953125 c 0
 213.5 63.2001953125 124.700195312 97.599609375 124.700195312 144 c 0
 124.700195312 210.400390625 122.299804688 438.400390625 122.299804688 548 c 0
 122.299804688 607.200195312 233.5 616.799804688 316.700195312 616.799804688 c 0
 414.299804688 616.799804688 487.099609375 588.799804688 487.099609375 548 c 0
 487.099609375 444.799804688 487.099609375 174.400390625 487.099609375 120.799804688 c 1
EndSplineSet
Validated: 9
EndChar

StartChar: E
Encoding: 69 69 47
Width: 604
VWidth: 0
Flags: W
HStem: 4 49.5996<162.293 465.741> 615.158 48.6416<244.431 467.738>
VStem: 43.8516 67.1992<97.0716 388.6> 483.109 74.5234<446.239 600.395> 500.971 59.9785<89.7147 209.596>
LayerCount: 3
Fore
SplineSet
43.05078125 424.599609375 m 4xe8
 43.05078125 538.200195312 82.9345703125 615.505859375 175.051757812 636.599609375 c 4
 216.1953125 646.021484375 317.288085938 663.799804688 368.651367188 663.799804688 c 4
 448.119140625 663.799804688 516.084960938 645.482421875 539.8515625 598.200195312 c 4
 564.651367188 548.861328125 557.6328125 532.110351562 557.6328125 454.200195312 c 4xf0
 557.6328125 443.811523438 557.818359375 404.881835938 557.818359375 393.400390625 c 5
 418.618164062 393.400390625 114.250976562 388.599609375 114.250976562 388.599609375 c 5
 114.250976562 327 111.05078125 235.200195312 111.05078125 157.599609375 c 0
 111.05078125 64.740234375 207.779296875 53.599609375 304.651367188 53.599609375 c 0
 345.482421875 53.599609375 405.4375 59.6376953125 447.05078125 66.400390625 c 0
 498.250976562 74.720703125 500.970703125 164.83203125 500.970703125 196.704101562 c 0
 500.970703125 204.671875 500.651367188 209.599609375 500.651367188 209.599609375 c 1
 499.8984375 209.412109375 498.92578125 209.3125 498.92578125 209.270507812 c 0
 498.92578125 209.251953125 499.096679688 209.244140625 499.524414062 209.244140625 c 0
 502.428710938 209.244140625 506.784179688 210.400390625 560.651367188 210.400390625 c 1
 560.651367188 190.0703125 560.94921875 170.338867188 560.94921875 152.612304688 c 0
 560.94921875 120.11328125 559.9453125 94.353515625 554.250976562 84 c 0
 534.250976562 48.7998046875 502.250976562 4 287.05078125 4 c 0
 191.05078125 4 43.8515625 39.2001953125 43.8515625 138.400390625 c 0
 43.8515625 284 43.05078125 424.599609375 43.05078125 424.599609375 c 4xe8
461.451171875 446.200195312 m 5
 461.451171875 447 483.109375 449.400390625 483.109375 450.200195312 c 4
 483.109375 559 503.8515625 615.158203125 394.250976562 615.158203125 c 4
 318.6640625 615.158203125 214.018554688 598.29296875 155.8515625 549.797851562 c 4
 124.750976562 523.869140625 112.651367188 480.275390625 112.651367188 444.599609375 c 5
 198.250976562 444.599609375 461.451171875 446.200195312 461.451171875 446.200195312 c 5
EndSplineSet
Validated: 524325
EndChar

StartChar: F
Encoding: 70 70 48
Width: 369
VWidth: 0
Flags: W
HStem: 728 54.4004<25.3955 107.604 190.996 267.604> 1166.4 31.5244<209.138 342.372>
VStem: 108.787 78.4004<4.7998 728 783.2 1143.72>
LayerCount: 3
Fore
SplineSet
107.795898438 783.200195312 m 1
 107.795898438 860.770507812 108.83984375 1033.12988281 111.795898438 1098.40039062 c 0
 113.875 1144.32519531 164.328125 1190.86230469 249.075195312 1197.92480469 c 0
 287.475585938 1201.125 343.795898438 1196 343.795898438 1196 c 0
 343.795898438 1196 340.7109375 1164.28320312 343.795898438 1168.79980469 c 0
 343.795898438 1168.79980469 341.6328125 1167.00585938 272.595703125 1166.40039062 c 0
 181.395507812 1165.59960938 188.595703125 1124 188.595703125 1043.20019531 c 0
 188.595703125 932.799804688 191.604492188 802.400390625 190.99609375 782.400390625 c 1
 267.795898438 782.400390625 l 1
 267.604492188 728 l 1
 186.00390625 728 l 1
 187.1875 4.7998046875 l 1
 108.787109375 4.7998046875 l 1
 107.604492188 728 l 1
 25.2041015625 728 l 1
 25.3955078125 782.400390625 l 1
 107.795898438 783.200195312 l 1
EndSplineSet
Validated: 37
EndChar

StartChar: G
Encoding: 71 71 49
Width: 532
VWidth: 0
Flags: W
HStem: -508 27.2002<55.5557 246.415> 5.59961 51.2002<141.878 366.521> 610.4 57.5996<158.587 371.652>
VStem: 55.5557 75.2002<71.4439 108 535.2 581.823> 405.155 66.4004<-452.901 -377.6 89.0997 129.6 533.6 580.878 633.544 664>
LayerCount: 3
Fore
SplineSet
306.755859375 -514.400390625 m 17
 402.755859375 -514.400390625 471.555664062 -508.799804688 471.555664062 -409.599609375 c 0
 471.555664062 -62.400390625 476.35546875 533.599609375 476.35546875 533.599609375 c 1
 476.35546875 533.599609375 477.155273438 615.200195312 477.155273438 664 c 1
 405.155273438 664 l 1
 405.155273438 656.799804688 405.155273438 632 405.155273438 633.599609375 c 1
 349.955078125 657.599609375 318.755859375 668 256.35546875 668 c 0
 140.35546875 668 55.5556640625 648.799804688 55.5556640625 535.200195312 c 2
 55.5556640625 103.200195312 l 2
 55.5556640625 7.2001953125 256.35546875 5.599609375 256.35546875 5.599609375 c 1
 357.955078125 5.599609375 405.155273438 28 405.155273438 28 c 1
 405.155273438 -377.599609375 l 1
 405.155273438 -440.799804688 405.155273438 -450.400390625 376.35546875 -456.799804688 c 0
 281.155273438 -476.799804688 55.5556640625 -480.799804688 55.5556640625 -480.799804688 c 1
 55.5556640625 -480.799804688 53.955078125 -497.599609375 55.5556640625 -508 c 1
 306.755859375 -514.400390625 l 17
405.155273438 533.599609375 m 0
 405.155273438 424 405.155273438 196 405.155273438 129.599609375 c 0
 405.155273438 83.2001953125 341.955078125 56.7998046875 256.35546875 56.7998046875 c 0
 159.555664062 56.7998046875 130.755859375 71.2001953125 130.755859375 108 c 0
 130.755859375 161.599609375 130.755859375 432 130.755859375 535.200195312 c 0
 130.755859375 576 158.755859375 610.400390625 256.35546875 610.400390625 c 0
 339.555664062 610.400390625 405.155273438 592.799804688 405.155273438 533.599609375 c 0
EndSplineSet
Validated: 5
EndChar

StartChar: H
Encoding: 72 72 50
Width: 593
VWidth: 0
Flags: W
HStem: 597.6 36.8008<296.577 467.565>
VStem: 40.1006 72<1.00458 514.355> 478.5 70.4004<-1.59961 587.487>
LayerCount: 3
Fore
SplineSet
478.5 -1.599609375 m 1
 548.900390625 -1.599609375 l 1
 555.299804688 9.599609375 552.100585938 316.799804688 552.100585938 548 c 0
 552.100585938 609.599609375 500.100585938 634.400390625 431.299804688 634.400390625 c 0
 300.100585938 634.400390625 102.5 556.799804688 102.5 556.799804688 c 0
 102.5 556.799804688 102.5 1115.20019531 102.5 1134.40039062 c 0
 40.1005859375 1134.40039062 l 1
 40.1005859375 861.599609375 40.1005859375 158.400390625 40.1005859375 0.7998046875 c 1
 109.700195312 0.7998046875 l 1
 109.700195312 0.7998046875 112.100585938 282.400390625 112.100585938 458.400390625 c 0
 112.100585938 547.200195312 252.100585938 597.599609375 358.5 597.599609375 c 0
 424.100585938 597.599609375 477.700195312 603.200195312 477.700195312 548 c 0
 477.700195312 332 478.5 -9.599609375 478.5 -1.599609375 c 1
EndSplineSet
Validated: 37
EndChar

StartChar: I
Encoding: 73 73 51
Width: 202
VWidth: 0
Flags: W
HStem: 0 21G<58.0342 137.234> 637 20G<58.0342 137.234> 761 88<63.4399 138.56>
VStem: 57 88<767.44 842.56> 58.0342 79.2002<0 657>
LayerCount: 3
Fore
SplineSet
57 805 m 0xf0
 57 829 77 849 101 849 c 0
 125 849 145 829 145 805 c 0
 145 781 125 761 101 761 c 0
 77 761 57 781 57 805 c 0xf0
137.234375 0 m 1xe8
 58.0341796875 0 l 1
 58.0341796875 657 l 1
 137.234375 657 l 1
 137.234375 0 l 1xe8
EndSplineSet
Validated: 524289
EndChar

StartChar: J
Encoding: 74 74 52
Width: 298
VWidth: 0
Flags: W
HStem: 785.6 88<187.483 262.603>
VStem: 181.043 88<792.04 867.16> 186.393 72.25<-470.079 -326.4>
LayerCount: 3
Fore
SplineSet
28.95703125 -518.974609375 m 17xa0
 41.9375 -519.415039062 55.859375 -519.64453125 70.791015625 -519.64453125 c 0
 166.791015625 -519.64453125 258.642578125 -507.200195312 258.642578125 -408 c 0
 258.642578125 -320 258.642578125 -62.400390625 258.642578125 138.400390625 c 0
 258.642578125 485.599609375 258.642578125 648 258.642578125 648 c 1
 258.642578125 648 258.642578125 615.19921875 258.642578125 664 c 1
 185.59375 664 l 1
 186.392578125 -326.400390625 l 2
 186.418825252 -358.94201483 187.275390625 -445.869140625 169.7578125 -467.200195312 c 0
 137.251953125 -506.779296875 28.95703125 -491.657226562 28.95703125 -491.657226562 c 1
 28.95703125 -518.974609375 l 17xa0
181.04296875 829.599609375 m 0xc0
 181.04296875 853.599609375 201.04296875 873.599609375 225.04296875 873.599609375 c 0
 249.04296875 873.599609375 269.04296875 853.599609375 269.04296875 829.599609375 c 0
 269.04296875 805.599609375 249.04296875 785.599609375 225.04296875 785.599609375 c 0
 201.04296875 785.599609375 181.04296875 805.599609375 181.04296875 829.599609375 c 0xc0
28.95703125 -518.974609375 m 1025
EndSplineSet
Validated: 524325
EndChar

StartChar: K
Encoding: 75 75 53
Width: 601
VWidth: 0
Flags: W
LayerCount: 3
Fore
SplineSet
320.353515625 663.200195312 m 1
 113.900390625 490 l 1
 113.900390625 1138.79980469 l 1
 45.099609375 1138.79980469 l 1
 45.099609375 866 47.099609375 159.599609375 47.099609375 2 c 1
 117.5 2 l 1
 117.5 2 117.099609375 256.400390625 117.099609375 428.400390625 c 1
 240.299804688 249.200195312 491.099609375 -2.7998046875 485.5 2 c 1
 555.900390625 2 l 1
 551.099609375 14 177.900390625 458 177.900390625 458 c 1
 371.553710938 612 l 1
 320.353515625 663.200195312 l 1
EndSplineSet
Validated: 524325
EndChar

StartChar: L
Encoding: 76 76 54
Width: 236
VWidth: 0
Flags: W
HStem: -0.799805 21G<84.273 158.801> 1109.6 20G<77.1992 157.228>
VStem: 77.1992 80<30.779 1129.6> 84.4004 74.4004<0 1098.02>
LayerCount: 3
Fore
SplineSet
158.80078125 0 m 1xd0
 84.400390625 -0.7998046875 l 1xd0
 77.19921875 1129.59960938 l 1
 157.19921875 1129.59960938 l 1xe0
 158.80078125 0 l 1xd0
EndSplineSet
Validated: 1
EndChar

StartChar: M
Encoding: 77 77 55
Width: 1050
VWidth: 0
Flags: W
HStem: 0 21G<482.6 555.884 931.4 1005> 619.2 36.7998<301.698 471.247 709.481 920.465>
VStem: 47.4004 68.7998<2.61966 535.955 582.435 656> 482.6 70.4004<0 553.834> 930.6 74.4004<0 609.087>
LayerCount: 3
Fore
SplineSet
532.201171875 602.400390625 m 1
 532.201171875 602.400390625 753 656 884.200195312 656 c 0
 953 656 1005 631.200195312 1005 569.599609375 c 0
 1005 338.400390625 1008.20019531 11.2001953125 1001.79980469 0 c 1
 931.400390625 0 l 1
 931.400390625 -8 930.599609375 353.599609375 930.599609375 569.599609375 c 0
 930.599609375 624.799804688 877 619.200195312 811.400390625 619.200195312 c 0
 705 619.200195312 559.400390625 607.200195312 556.282226562 499.200195312 c 0
 549.973632812 280.673828125 558.767578125 10.0927734375 553 0 c 1
 482.599609375 0 l 1
 482.599609375 -8 481.799804688 353.599609375 481.799804688 569.599609375 c 0
 481.799804688 624.799804688 428.200195312 619.200195312 362.599609375 619.200195312 c 0
 256.200195312 619.200195312 116.200195312 568.799804688 116.200195312 480 c 0
 116.200195312 304 113.799804688 2.400390625 113.799804688 2.400390625 c 1
 44.2001953125 2.400390625 l 1
 44.2001953125 160 47.400390625 383.200195312 47.400390625 656 c 1
 116.200195312 656 l 1
 116.200195312 656 116.200195312 653.599609375 116.200195312 649.599609375 c 0
 116.200195312 630.400390625 115.400390625 582.400390625 115.400390625 582.400390625 c 0
 115.400390625 582.400390625 304.200195312 656 435.400390625 656 c 0
 489.865234375 656 516.255859375 639.4375 532.201171875 602.400390625 c 1
EndSplineSet
Validated: 524321
EndChar

StartChar: N
Encoding: 78 78 56
Width: 607
VWidth: 0
Flags: W
HStem: 618.4 36.7998<304.597 474.565>
VStem: 50.2998 68.7998<1.81888 535.155 581.634 648.8> 485.5 70.3994<-0.799805 608.288>
LayerCount: 3
Fore
SplineSet
485.5 -0.7998046875 m 1
 555.899414062 -0.7998046875 l 1
 562.299804688 10.400390625 559.099609375 337.599609375 559.099609375 568.799804688 c 0
 559.099609375 630.400390625 507.099609375 655.200195312 438.299804688 655.200195312 c 0
 307.099609375 655.200195312 118.299804688 581.599609375 118.299804688 581.599609375 c 0
 118.299804688 581.599609375 119.099609375 629.599609375 119.099609375 648.799804688 c 0
 119.099609375 652.799804688 119.099609375 655.200195312 119.099609375 655.200195312 c 1
 50.2998046875 655.200195312 l 1
 50.2998046875 382.400390625 47.099609375 159.200195312 47.099609375 1.599609375 c 1
 116.700195312 1.599609375 l 1
 116.700195312 1.599609375 119.099609375 303.200195312 119.099609375 479.200195312 c 0
 119.099609375 568 259.099609375 618.400390625 365.5 618.400390625 c 0
 431.099609375 618.400390625 484.700195312 624 484.700195312 568.799804688 c 0
 484.700195312 352.799804688 485.5 -8.7998046875 485.5 -0.7998046875 c 1
EndSplineSet
Validated: 524325
EndChar

StartChar: O
Encoding: 79 79 57
Width: 572
VWidth: 0
Flags: W
HStem: -0.799805 52.7998<141.257 427.889> 608.8 50.4004<166.613 401.362>
VStem: 40 61.6006<82.6954 557.586> 467.2 63.2002<82.6954 557.586>
LayerCount: 3
Fore
SplineSet
282.400390625 52 m 4
 368 52 467.200195312 68 467.200195312 114.400390625 c 4
 467.200195312 180.799804688 464 408 464 517.599609375 c 4
 464 576.799804688 367.200195312 608.799804688 284 608.799804688 c 4
 200.80078125 608.799804688 101.600585938 576.799804688 101.600585938 517.599609375 c 4
 101.600585938 408 103.200195312 180.799804688 103.200195312 114.400390625 c 4
 103.200195312 68 196.80078125 52 282.400390625 52 c 4
284 -0.7998046875 m 5
 158.400390625 -0.7998046875 41.6005859375 31.2001953125 41.6005859375 105.599609375 c 4
 41.6005859375 165.599609375 40 415.200195312 40 526.400390625 c 4
 40 647.200195312 173.600585938 659.200195312 284 659.200195312 c 5
 394.400390625 659.200195312 532 647.200195312 532 526.400390625 c 4
 532 415.200195312 530.400390625 165.599609375 530.400390625 105.599609375 c 4
 530.400390625 31.2001953125 410.400390625 -0.7998046875 284 -0.7998046875 c 5
EndSplineSet
Validated: 1
EndChar

StartChar: P
Encoding: 80 80 58
Width: 619
VWidth: 0
Flags: W
HStem: 0 57.5996<177.446 457.852> 611.2 48.7998<172.426 437.888> 644.8 21G<133.1 133.1>
VStem: 50.6992 83.2012<90.9087 126.4 553.6 582.019> 498.699 69.6016<90.7536 126.4 530.4 563.784>
LayerCount: 3
Fore
SplineSet
50.69921875 559.200195312 m 1xb8
 50.69921875 496 50.69921875 296.799804688 50.69921875 128 c 0
 50.69921875 -106.400390625 50.69921875 -473.599609375 50.69921875 -473.599609375 c 1
 134.69921875 -473.599609375 l 25
 134.69921875 21.599609375 l 1
 134.69921875 21.599609375 243.5 0 302.69921875 0 c 0
 413.099609375 0 568.30078125 5.599609375 568.30078125 126.400390625 c 0
 568.30078125 237.599609375 566.69921875 493.599609375 566.69921875 553.599609375 c 0
 566.69921875 628 445.099609375 660 319.5 660 c 0xd8
 253.099609375 660 133.099609375 644.799804688 133.099609375 644.799804688 c 1
 133.099609375 662.400390625 l 1
 50.69921875 662.400390625 l 1
 50.69921875 559.200195312 l 1xb8
133.900390625 553.599609375 m 1
 133.900390625 590.400390625 225.099609375 611.200195312 321.900390625 611.200195312 c 0
 407.5 611.200195312 496.30078125 576.799804688 496.30078125 530.400390625 c 0
 496.30078125 464 498.69921875 236 498.69921875 126.400390625 c 0
 498.69921875 67.2001953125 387.5 57.599609375 304.30078125 57.599609375 c 0
 206.69921875 57.599609375 133.900390625 85.599609375 133.900390625 126.400390625 c 0
 133.900390625 229.599609375 133.900390625 500 133.900390625 553.599609375 c 1
EndSplineSet
Validated: 9
EndChar

StartChar: Q
Encoding: 81 81 59
Width: 616
VWidth: 0
Flags: W
HStem: -12 57.5996<159.648 440.054> 607.2 48.7998<179.612 445.074>
VStem: 49.2002 69.5996<78.7536 559.784> 482.8 84<-485.6 9.59961 78.9087 578.019 640.8 658.4>
LayerCount: 3
Fore
SplineSet
566.799804688 555.200195312 m 5
 566.799804688 492 566.799804688 284.799804688 566.799804688 116 c 0
 566.799804688 -118.400390625 566.799804688 -485.599609375 566.799804688 -485.599609375 c 1
 482.799804688 -485.599609375 l 25
 482.799804688 9.599609375 l 1
 482.799804688 9.599609375 374 -12 314.799804688 -12 c 0
 204.400390625 -12 49.2001953125 -6.400390625 49.2001953125 114.400390625 c 0
 49.2001953125 225.599609375 50.7998046875 489.599609375 50.7998046875 549.599609375 c 4
 50.7998046875 624 172.400390625 656 298 656 c 4
 364.400390625 656 484.400390625 640.799804688 484.400390625 640.799804688 c 5
 484.400390625 658.400390625 l 5
 566.799804688 658.400390625 l 5
 566.799804688 555.200195312 l 5
483.600585938 549.599609375 m 5
 483.600585938 586.400390625 392.400390625 607.200195312 295.600585938 607.200195312 c 4
 210 607.200195312 121.200195312 572.799804688 121.200195312 526.400390625 c 4
 121.200195312 460 118.799804688 224 118.799804688 114.400390625 c 0
 118.799804688 55.2001953125 230 45.599609375 313.200195312 45.599609375 c 0
 410.799804688 45.599609375 483.600585938 73.599609375 483.600585938 114.400390625 c 0
 483.600585938 217.599609375 483.600585938 496 483.600585938 549.599609375 c 5
EndSplineSet
Validated: 524289
EndChar

StartChar: R
Encoding: 82 82 60
Width: 569
VWidth: 0
Flags: W
HStem: 604.8 38.4004<280.029 459.788>
VStem: 31.7002 68.7998<9.80438 512.873 569.634 636.8>
LayerCount: 3
Fore
SplineSet
540.5 556.799804688 m 1
 540.5 618.400390625 488.5 643.200195312 419.700195312 643.200195312 c 0
 288.5 643.200195312 99.7001953125 569.599609375 99.7001953125 569.599609375 c 0
 99.7001953125 569.599609375 100.5 617.599609375 100.5 636.799804688 c 0
 100.5 640.799804688 100.5 643.200195312 100.5 643.200195312 c 1
 31.7001953125 643.200195312 l 1
 31.7001953125 370.400390625 28.5 167.200195312 28.5 9.599609375 c 1
 98.099609375 9.599609375 l 1
 98.099609375 9.599609375 100.5 291.200195312 100.5 467.200195312 c 0
 100.5 556 305.299804688 604.799804688 411.700195312 604.799804688 c 0
 477.299804688 604.799804688 466.099609375 556.799804688 466.099609375 556.799804688 c 1
 466.099609375 556.799804688 511.700195312 556.799804688 540.5 556.799804688 c 1
EndSplineSet
Validated: 41
EndChar

StartChar: S
Encoding: 83 83 61
Width: 602
VWidth: 0
Flags: W
HStem: 12 67.2002<184.9 467.06>
VStem: 488.101 70.3994<128.031 269.224>
LayerCount: 3
Fore
SplineSet
558.5 191.200195312 m 0
 558.5 154.400390625 558.5 146.400390625 558.5 128 c 0
 558.5 38.400390625 465.700195312 12 328.100585938 12 c 0
 256.100585938 12 209.700195312 15.2001953125 34.5 93.599609375 c 1
 46.5 117.599609375 l 1
 60.1005859375 151.200195312 l 1
 215.30078125 82.400390625 251.30078125 79.2001953125 328.100585938 79.2001953125 c 0
 424.900390625 79.2001953125 473.700195312 84.7998046875 485.700195312 128 c 0
 485.700195312 128 488.100585938 171.200195312 488.100585938 183.200195312 c 0
 488.100585938 324 367.54296875 361.423828125 204.100585938 424.799804688 c 0
 164.900390625 440 126.423828125 442.400390625 126.423828125 477.599609375 c 0
 126.423828125 509.599609375 122.423828125 579.200195312 163.223632812 602.400390625 c 0
 282.423828125 670.400390625 381.700195312 692 540.100585938 576.799804688 c 1
 540.100585938 576.799804688 509.700195312 532 503.30078125 543.200195312 c 1
 182.5 744 174.5 507.200195312 224.900390625 487.200195312 c 0
 485.700195312 385.599609375 558.5 351.200195312 558.5 191.200195312 c 0
EndSplineSet
Validated: 524321
EndChar

StartChar: U
Encoding: 85 85 62
Width: 575
VWidth: 0
Flags: W
HStem: 0 36.7998<116.436 286.403>
VStem: 31.9004 74.4004<46.6846 645.954> 471.9 68.8008<6.40039 73.5647 120.045 652.381>
LayerCount: 3
Fore
SplineSet
107.099609375 646.200195312 m 1
 33.5 646.200195312 l 1
 33.5 646.200195312 31.900390625 312 31.900390625 81.599609375 c 0
 31.900390625 20 83.900390625 0 152.701171875 0 c 0
 283.900390625 0 472.701171875 73.599609375 472.701171875 73.599609375 c 0
 472.701171875 73.599609375 471.900390625 25.599609375 471.900390625 6.400390625 c 0
 471.900390625 2.400390625 471.900390625 0 471.900390625 0 c 1
 540.701171875 0 l 1
 540.701171875 272.799804688 543.099609375 495 543.099609375 652.599609375 c 1
 474.30078125 652.599609375 l 1
 474.30078125 652.599609375 471.900390625 352 471.900390625 176 c 0
 471.900390625 87.2001953125 331.900390625 36.7998046875 225.5 36.7998046875 c 0
 159.900390625 36.7998046875 106.30078125 31.2001953125 106.30078125 86.400390625 c 0
 106.30078125 302.400390625 107.099609375 646.200195312 107.099609375 646.200195312 c 1
EndSplineSet
Validated: 524329
EndChar

StartChar: V
Encoding: 86 86 63
Width: 635
VWidth: 0
Flags: W
HStem: 0 21G<295.389 393.9> 627 20G<41.0996 114.699 520.299 593.9>
LayerCount: 3
Fore
SplineSet
303.5 0 m 1
 41.099609375 647 l 1
 114.69921875 647 l 1
 114.69921875 647 229.900390625 332 325.900390625 128 c 1
 421.900390625 332 520.298828125 647 520.298828125 647 c 1
 593.900390625 647 l 1
 593.900390625 647 437.900390625 218.400390625 349.900390625 0 c 1
 303.5 0 303.5 0 303.5 0 c 1
EndSplineSet
Validated: 524289
EndChar

StartChar: W
Encoding: 87 87 64
Width: 922
VWidth: 0
Flags: W
HStem: 0 21G<307.301 377.7 557.775 669> 628 20G<53 126.6 795.399 869>
LayerCount: 3
Fore
SplineSet
433.50390625 354.002929688 m 9
 500.39453125 354.7421875 l 1
 500.39453125 354.7421875 567.911132812 198.313476562 601 128 c 1
 697 332 795.399414062 648 795.399414062 648 c 1
 869 648 l 1
 869 648 713 218.400390625 625 0 c 1
 578.599609375 0 578.599609375 0 578.599609375 0 c 1
 536.951171875 94.1103515625 512.34765625 168.290039062 465.799804688 262.400390625 c 1
 426.809570312 162.559570312 393.600585938 78.9228515625 361.799804688 0 c 1
 315.399414062 0 315.399414062 0 315.399414062 0 c 1
 53 648 l 1
 126.599609375 648 l 1
 126.599609375 648 241.799804688 332 337.799804688 128 c 1
 370.780273438 198.083984375 404.043945312 278.5546875 433.50390625 354.002929688 c 9
EndSplineSet
Validated: 524289
EndChar

StartChar: X
Encoding: 88 88 65
Width: 533
VWidth: 0
Flags: W
HStem: 629.8 20G<105.7 191.892 353.397 440.101>
LayerCount: 3
Fore
SplineSet
116.900390625 2.400390625 m 1
 42.5 2.400390625 l 1
 75.30078125 67.2001953125 170.5 242.400390625 230.5 384 c 1
 105.700195312 649.799804688 l 5
 182.5 649.799804688 l 5
 270.5 462.400390625 l 1
 363.30078125 649.799804688 l 5
 440.100585938 649.799804688 l 5
 376.900390625 531.400390625 378.5 521.599609375 312.100585938 387.200195312 c 1
 490.5 2.400390625 l 1
 419.30078125 2.400390625 l 1
 272.100585938 318.400390625 l 1
 272.100585938 318.400390625 116.900390625 4.7998046875 116.900390625 2.400390625 c 1
EndSplineSet
Validated: 524289
EndChar

StartChar: Y
Encoding: 89 89 66
Width: 624
VWidth: 0
Flags: W
HStem: 631.6 20G<35.5996 109.199 514.801 588.4>
LayerCount: 3
Fore
SplineSet
123.599609375 -504 m 1
 106 -504 86.80078125 -497.599609375 68.400390625 -492 c 1
 306 93.599609375 298 69.599609375 291.599609375 69.599609375 c 1
 35.599609375 651.599609375 l 1
 109.19921875 651.599609375 l 1
 109.19921875 651.599609375 224.400390625 341.599609375 320.400390625 137.599609375 c 1
 416.400390625 341.599609375 514.80078125 651.599609375 514.80078125 651.599609375 c 1
 588.400390625 651.599609375 l 1
 588.400390625 651.599609375 378 93.599609375 123.599609375 -504 c 1
EndSplineSet
Validated: 524321
EndChar

StartChar: Z
Encoding: 90 90 67
Width: 646
VWidth: 0
Flags: W
HStem: 0 64<194.6 597.8> 609 48.7998<101.8 456.2>
LayerCount: 3
Fore
SplineSet
101.799804688 609 m 1
 101.799804688 657.799804688 l 1
 565.799804688 657.799804688 l 2
 194.599609375 64 l 1
 565.799804688 64 l 1
 597.799804688 64 l 1
 597.799804688 32 l 1
 597.799804688 0 l 1
 565.799804688 0 l 2
 48.2001953125 0 l 1
 456.200195312 609 l 1
 101.799804688 609 l 1
EndSplineSet
Validated: 524289
EndChar
